<svg width="2008" height="1742" xmlns="http://www.w3.org/2000/svg" xmlns:xlink="http://www.w3.org/1999/xlink" xml:space="preserve" overflow="hidden"><defs><clipPath id="clip0"><rect x="1168" y="403" width="2008" height="1742"/></clipPath><clipPath id="clip1"><path d="M2558.76 406.851 3060.73 1382.19 2742.81 1545.82 2240.84 570.476Z" fill-rule="nonzero" clip-rule="nonzero"/></clipPath><clipPath id="clip2"><path d="M2558.76 406.851 3060.73 1382.19 2742.81 1545.82 2240.84 570.476Z" fill-rule="evenodd" clip-rule="evenodd"/></clipPath><clipPath id="clip3"><path d="M2626.42-230.517 3591.76 1645.17 1715.98 2610.57 750.632 734.878Z" fill-rule="evenodd" clip-rule="evenodd"/></clipPath><clipPath id="clip4"><path d="M2468.87 1131.26 2746.87 1671.42 1829.04 2143.79 1551.04 1603.63Z" fill-rule="nonzero" clip-rule="nonzero"/></clipPath><clipPath id="clip5"><path d="M2468.87 1131.26 2746.87 1671.42 1829.04 2143.79 1551.04 1603.63Z" fill-rule="evenodd" clip-rule="evenodd"/></clipPath><clipPath id="clip6"><path d="M2626.4-230.482 3591.74 1645.19 1716.06 2610.52 750.725 734.856Z" fill-rule="evenodd" clip-rule="evenodd"/></clipPath><clipPath id="clip7"><path d="M1629.74 601.926 1978.13 1278.85 1603.87 1471.46 1255.49 794.54Z" fill-rule="nonzero" clip-rule="nonzero"/></clipPath><clipPath id="clip8"><path d="M1629.74 601.926 1978.13 1278.85 1603.87 1471.46 1255.49 794.54Z" fill-rule="evenodd" clip-rule="evenodd"/></clipPath><clipPath id="clip9"><path d="M2626.39-230.494 3591.74 1645.21 1716.07 2610.54 750.718 734.842Z" fill-rule="evenodd" clip-rule="evenodd"/></clipPath><clipPath id="clip10"><path d="M1422.16 812.815 2182.28 855.42 2198.97 557.669 1438.85 515.064Z" fill-rule="nonzero" clip-rule="nonzero"/></clipPath><clipPath id="clip11"><path d="M1422.16 812.815 2182.28 855.42 2198.97 557.669 1438.85 515.064Z" fill-rule="evenodd" clip-rule="evenodd"/></clipPath><clipPath id="clip12"><path d="M1060.76 2184.51 3166.99 2302.57 3285.04 196.384 1178.81 78.3309Z" fill-rule="evenodd" clip-rule="evenodd"/></clipPath><clipPath id="clip13"><rect x="2657" y="815" width="190" height="191"/></clipPath><clipPath id="clip14"><rect x="2657" y="815" width="190" height="191"/></clipPath><clipPath id="clip15"><rect x="2657" y="815" width="190" height="191"/></clipPath><clipPath id="clip16"><rect x="2728" y="878" width="50" height="51"/></clipPath><clipPath id="clip17"><rect x="2728" y="878" width="50" height="51"/></clipPath><clipPath id="clip18"><rect x="2728" y="878" width="50" height="51"/></clipPath><clipPath id="clip19"><rect x="2103" y="1729" width="192" height="191"/></clipPath><clipPath id="clip20"><rect x="2103" y="1729" width="192" height="191"/></clipPath><clipPath id="clip21"><rect x="2103" y="1729" width="192" height="191"/></clipPath><clipPath id="clip22"><rect x="1553" y="812" width="192" height="194"/></clipPath><clipPath id="clip23"><rect x="1553" y="812" width="192" height="194"/></clipPath><clipPath id="clip24"><rect x="1553" y="812" width="192" height="194"/></clipPath></defs><g clip-path="url(#clip0)" transform="translate(-1168 -403)"><path d="M2047 1824.5C2047 1740.28 2115.28 1672 2199.5 1672 2283.72 1672 2352 1740.28 2352 1824.5 2352 1908.72 2283.72 1977 2199.5 1977 2115.28 1977 2047 1908.72 2047 1824.5Z" fill="#000000" fill-rule="evenodd" fill-opacity="1"/><g clip-path="url(#clip1)"><g clip-path="url(#clip2)"><g clip-path="url(#clip3)"><path d="M1725.46 1035.91C1725.61 952.747 1709.39 870.368 1677.73 793.467 1673.11 782.241 1660.26 776.89 1649.03 781.513 1637.81 786.137 1632.46 798.985 1637.08 810.211 1761.53 1113.55 1616.52 1460.35 1313.18 1584.8 1280.49 1598.21 1246.68 1608.68 1212.14 1616.07 1211.86 1616.07 1211.75 1616.07 1211.88 1615.74L1299.51 1460.82C1306.22 1450.71 1303.45 1437.07 1293.34 1430.37 1283.22 1423.66 1269.58 1426.43 1262.88 1436.54 1262.29 1437.43 1261.77 1438.35 1261.32 1439.31L1149.93 1636.27C1143.96 1646.83 1147.68 1660.24 1158.25 1666.21 1158.25 1666.21 1158.26 1666.22 1158.26 1666.22L1354.84 1777.39C1365.33 1783.49 1378.78 1779.94 1384.89 1769.45 1391 1758.97 1387.45 1745.51 1376.96 1739.41 1376.79 1739.31 1376.63 1739.22 1376.47 1739.13L1231.83 1657.34C1231.57 1657.19 1231.61 1657.01 1231.83 1656.94 1520.32 1589.2 1724.56 1332.24 1725.46 1035.91Z" fill="#7C7C7C" fill-rule="nonzero" fill-opacity="1" transform="matrix(0.457612 0.889152 -0.889199 0.457636 2626.42 -230.517)"/><path d="M1009.39 1623.9C932.647 1613.64 858.682 1588.37 791.709 1549.53 550.202 1409.06 438.792 1119.6 523.8 853.457 523.8 853.193 524.063 853.171 524.195 853.457L614.18 1006.75C620.339 1017.21 633.811 1020.7 644.273 1014.54 654.735 1008.38 658.222 994.907 652.063 984.445L537.533 789.292C531.389 778.826 517.926 775.321 507.459 781.465 507.457 781.465 507.453 781.467 507.451 781.469L312.671 895.735C302.205 901.881 298.702 915.352 304.848 925.818 310.995 936.284 324.465 939.787 334.931 933.641L478.511 849.37C478.774 849.216 478.906 849.37 478.818 849.611 376.159 1186.54 566.074 1542.9 903.006 1645.56 935.871 1655.58 969.492 1662.92 1003.54 1667.51 1004.52 1667.65 1005.52 1667.71 1006.51 1667.71 1018.64 1667.77 1028.53 1657.98 1028.59 1645.85 1028.64 1634.74 1020.4 1625.34 1009.39 1623.94Z" fill="#7C7C7C" fill-rule="nonzero" fill-opacity="1" transform="matrix(0.457612 0.889152 -0.889199 0.457636 2626.42 -230.517)"/><path d="M1527.8 637.56C1528 637.758 1527.93 637.934 1527.65 637.934L1350.95 638.813C1338.82 638.843 1329 648.705 1329.03 660.842 1329.06 672.978 1338.93 682.792 1351.06 682.761L1577.4 681.64C1589.53 681.64 1599.37 671.802 1599.37 659.666L1598.19 433.727C1598.66 422.061 1589.58 412.223 1577.92 411.753 1577.35 411.731 1576.78 411.731 1576.21 411.753 1564.07 411.753 1554.24 421.591 1554.24 433.727 1554.24 433.765 1554.24 433.8 1554.24 433.837L1555.07 601.083C1555.07 601.391 1554.92 601.456 1554.7 601.237 1351.88 384.898 1027 336.252 769.713 483.697 697.613 525.158 634.385 580.412 583.635 646.306 576.274 655.955 578.131 669.744 587.78 677.105 597.36 684.411 611.037 682.642 618.443 673.136 665.694 611.811 724.563 560.393 791.687 521.822 1033.85 383.083 1339.89 431.202 1527.8 637.56Z" fill="#7C7C7C" fill-rule="nonzero" fill-opacity="1" transform="matrix(0.457612 0.889152 -0.889199 0.457636 2626.42 -230.517)"/></g></g></g><g clip-path="url(#clip4)"><g clip-path="url(#clip5)"><g clip-path="url(#clip6)"><path d="M1725.44 1035.9C1725.59 952.736 1709.37 870.358 1677.71 793.458 1673.09 782.232 1660.24 776.881 1649.01 781.504 1637.79 786.128 1632.44 798.976 1637.06 810.202 1761.51 1113.54 1616.5 1460.33 1313.16 1584.78 1280.48 1598.19 1246.67 1608.66 1212.13 1616.05 1211.84 1616.05 1211.73 1616.05 1211.86 1615.72L1299.5 1460.81C1306.2 1450.69 1303.44 1437.06 1293.32 1430.35 1283.21 1423.65 1269.57 1426.41 1262.87 1436.53 1262.28 1437.41 1261.76 1438.33 1261.31 1439.29L1149.92 1636.25C1143.95 1646.81 1147.67 1660.22 1158.23 1666.19 1158.24 1666.19 1158.24 1666.2 1158.25 1666.2L1354.83 1777.36C1365.32 1783.47 1378.77 1779.92 1384.87 1769.43 1390.98 1758.95 1387.43 1745.49 1376.94 1739.39 1376.78 1739.29 1376.61 1739.2 1376.45 1739.11L1231.82 1657.32C1231.55 1657.17 1231.6 1656.99 1231.82 1656.93 1520.3 1589.18 1724.54 1332.23 1725.44 1035.9Z" fill="#000000" fill-rule="nonzero" fill-opacity="1" transform="matrix(0.457612 0.889152 -0.889158 0.457615 2626.4 -230.482)"/><path d="M1009.37 1623.88C932.637 1613.62 858.672 1588.36 791.7 1549.52 550.195 1409.05 438.787 1119.59 523.793 853.447 523.793 853.183 524.057 853.161 524.189 853.447L614.172 1006.74C620.332 1017.2 633.804 1020.69 644.266 1014.53 654.728 1008.37 658.215 994.896 652.056 984.434L537.527 789.283C531.383 778.817 517.92 775.312 507.454 781.456 507.451 781.456 507.447 781.458 507.445 781.46L312.668 895.725C302.201 901.871 298.699 915.341 304.845 925.807 310.991 936.273 324.461 939.776 334.927 933.63L478.505 849.36C478.769 849.206 478.901 849.36 478.813 849.602 376.155 1186.53 566.067 1542.88 902.996 1645.54 935.86 1655.56 969.48 1662.9 1003.53 1667.49 1004.51 1667.63 1005.5 1667.69 1006.5 1667.69 1018.63 1667.75 1028.52 1657.96 1028.58 1645.83 1028.63 1634.72 1020.39 1625.32 1009.37 1623.92Z" fill="#000000" fill-rule="nonzero" fill-opacity="1" transform="matrix(0.457612 0.889152 -0.889158 0.457615 2626.4 -230.482)"/><path d="M1527.78 637.553C1527.98 637.75 1527.92 637.926 1527.63 637.926L1350.94 638.805C1338.8 638.836 1328.99 648.698 1329.02 660.834 1329.05 672.97 1338.91 682.784 1351.05 682.753L1577.38 681.633C1589.52 681.633 1599.35 671.795 1599.35 659.659L1598.17 433.722C1598.64 422.056 1589.56 412.218 1577.9 411.748 1577.33 411.726 1576.76 411.726 1576.19 411.748 1564.06 411.748 1554.22 421.586 1554.22 433.722 1554.22 433.76 1554.22 433.795 1554.22 433.832L1555.05 601.076C1555.05 601.384 1554.9 601.45 1554.68 601.23 1351.87 384.894 1026.99 336.248 769.704 483.691 697.605 525.151 634.377 580.405 583.629 646.298 576.267 655.947 578.124 669.736 587.773 677.097 597.354 684.403 611.03 682.635 618.435 673.129 665.686 611.804 724.554 560.387 791.678 521.816 1033.84 383.079 1339.88 431.197 1527.78 637.553Z" fill="#000000" fill-rule="nonzero" fill-opacity="1" transform="matrix(0.457612 0.889152 -0.889158 0.457615 2626.4 -230.482)"/></g></g></g><g clip-path="url(#clip7)"><g clip-path="url(#clip8)"><g clip-path="url(#clip9)"><path d="M1725.45 1035.9C1725.59 952.74 1709.37 870.361 1677.72 793.461 1673.1 782.234 1660.25 776.884 1649.02 781.507 1637.79 786.13 1632.44 798.979 1637.07 810.205 1761.52 1113.54 1616.5 1460.34 1313.16 1584.79 1280.48 1598.2 1246.67 1608.66 1212.13 1616.06 1211.85 1616.06 1211.74 1616.06 1211.87 1615.73L1299.5 1460.81C1306.21 1450.7 1303.44 1437.06 1293.33 1430.36 1283.21 1423.65 1269.57 1426.42 1262.87 1436.53 1262.28 1437.41 1261.76 1438.34 1261.31 1439.3L1149.92 1636.25C1143.95 1646.82 1147.67 1660.22 1158.24 1666.2 1158.24 1666.2 1158.25 1666.2 1158.25 1666.2L1354.83 1777.37C1365.32 1783.48 1378.77 1779.93 1384.88 1769.44 1390.99 1758.95 1387.43 1745.5 1376.95 1739.39 1376.78 1739.3 1376.62 1739.2 1376.45 1739.11L1231.82 1657.33C1231.56 1657.17 1231.6 1657 1231.82 1656.93 1520.31 1589.18 1724.54 1332.23 1725.45 1035.9Z" fill="#FD7E14" fill-rule="nonzero" fill-opacity="1" transform="matrix(0.457618 0.889164 -0.889152 0.457612 2626.39 -230.494)"/><path d="M1009.38 1623.88C932.64 1613.63 858.675 1588.36 791.703 1549.52 550.197 1409.05 438.789 1119.59 523.795 853.45 523.795 853.186 524.059 853.164 524.191 853.45L614.175 1006.74C620.334 1017.2 633.806 1020.69 644.268 1014.53 654.73 1008.37 658.217 994.899 652.058 984.437L537.529 789.286C531.385 778.82 517.922 775.315 507.455 781.459 507.453 781.459 507.449 781.461 507.447 781.463L312.669 895.728C302.202 901.874 298.7 915.344 304.846 925.811 310.992 936.277 324.462 939.779 334.928 933.633L478.507 849.363C478.771 849.209 478.902 849.363 478.814 849.605 376.156 1186.53 566.069 1542.89 902.999 1645.55 935.864 1655.56 969.484 1662.9 1003.53 1667.5 1004.51 1667.63 1005.51 1667.7 1006.5 1667.7 1018.64 1667.76 1028.52 1657.97 1028.58 1645.83 1028.63 1634.73 1020.39 1625.33 1009.38 1623.93Z" fill="#FD7E14" fill-rule="nonzero" fill-opacity="1" transform="matrix(0.457618 0.889164 -0.889152 0.457612 2626.39 -230.494)"/><path d="M1527.79 637.555C1527.99 637.753 1527.92 637.929 1527.64 637.929L1350.94 638.807C1338.81 638.838 1328.99 648.7 1329.02 660.836 1329.05 672.973 1338.92 682.786 1351.05 682.756L1577.38 681.635C1589.52 681.635 1599.36 671.797 1599.36 659.661L1598.17 433.724C1598.64 422.058 1589.57 412.22 1577.9 411.75 1577.33 411.728 1576.77 411.728 1576.2 411.75 1564.06 411.75 1554.22 421.587 1554.22 433.724 1554.22 433.761 1554.22 433.796 1554.22 433.834L1555.06 601.078C1555.06 601.386 1554.91 601.452 1554.69 601.232 1351.87 384.895 1026.99 336.249 769.707 483.693 697.608 525.153 634.38 580.407 583.631 646.301 576.269 655.949 578.126 669.738 587.775 677.099 597.356 684.406 611.032 682.637 618.438 673.131 665.688 611.806 724.557 560.389 791.681 521.818 1033.85 383.08 1339.88 431.199 1527.79 637.555Z" fill="#FD7E14" fill-rule="nonzero" fill-opacity="1" transform="matrix(0.457618 0.889164 -0.889152 0.457612 2626.39 -230.494)"/></g></g></g><g clip-path="url(#clip10)"><g clip-path="url(#clip11)"><g clip-path="url(#clip12)"><path d="M1725.43 1035.89C1725.58 952.731 1709.36 870.353 1677.7 793.453 1673.08 782.227 1660.23 776.876 1649 781.499 1637.78 786.123 1632.43 798.971 1637.05 810.197 1761.5 1113.53 1616.49 1460.32 1313.15 1584.78 1280.47 1598.18 1246.66 1608.65 1212.12 1616.04 1211.84 1616.04 1211.73 1616.04 1211.86 1615.71L1299.49 1460.8C1306.19 1450.68 1303.43 1437.05 1293.31 1430.34 1283.2 1423.64 1269.56 1426.4 1262.86 1436.52 1262.27 1437.4 1261.75 1438.33 1261.3 1439.29L1149.91 1636.24C1143.94 1646.8 1147.66 1660.21 1158.23 1666.18 1158.23 1666.18 1158.24 1666.19 1158.24 1666.19L1354.82 1777.35C1365.31 1783.46 1378.76 1779.91 1384.87 1769.42 1390.97 1758.94 1387.42 1745.48 1376.93 1739.38 1376.77 1739.28 1376.61 1739.19 1376.44 1739.1L1231.81 1657.31C1231.55 1657.16 1231.59 1656.98 1231.81 1656.92 1520.29 1589.17 1724.53 1332.22 1725.43 1035.89Z" fill="#FD7E14" fill-rule="nonzero" fill-opacity="1" transform="matrix(0.998456 0.0559631 0.0559618 -0.998433 1060.76 2184.51)"/><path d="M1009.37 1623.87C932.631 1613.61 858.667 1588.35 791.695 1549.51 550.192 1409.04 438.785 1119.58 523.79 853.442 523.79 853.178 524.054 853.156 524.186 853.442L614.169 1006.73C620.328 1017.19 633.8 1020.68 644.262 1014.52 654.724 1008.36 658.211 994.89 652.052 984.428L537.524 789.278C531.38 778.812 517.917 775.307 507.451 781.451 507.448 781.451 507.444 781.453 507.442 781.456L312.666 895.72C302.2 901.866 298.697 915.336 304.843 925.802 310.989 936.268 324.459 939.77 334.925 933.624L478.502 849.355C478.766 849.201 478.898 849.355 478.81 849.596 376.153 1186.52 566.064 1542.88 902.991 1645.53 935.855 1655.55 969.475 1662.89 1003.52 1667.48 1004.51 1667.62 1005.5 1667.68 1006.49 1667.68 1018.63 1667.74 1028.51 1657.95 1028.57 1645.82 1028.62 1634.71 1020.38 1625.31 1009.37 1623.91Z" fill="#FD7E14" fill-rule="nonzero" fill-opacity="1" transform="matrix(0.998456 0.0559631 0.0559618 -0.998433 1060.76 2184.51)"/><path d="M1527.78 637.549C1527.97 637.747 1527.91 637.922 1527.62 637.922L1350.93 638.801C1338.79 638.832 1328.98 648.694 1329.01 660.83 1329.04 672.966 1338.9 682.78 1351.04 682.749L1577.37 681.628C1589.51 681.628 1599.34 671.791 1599.34 659.655L1598.16 433.72C1598.63 422.054 1589.55 412.216 1577.89 411.746 1577.32 411.724 1576.75 411.724 1576.18 411.746 1564.05 411.746 1554.21 421.583 1554.21 433.72 1554.21 433.757 1554.21 433.792 1554.21 433.829L1555.04 601.072C1555.04 601.38 1554.89 601.446 1554.67 601.226 1351.86 384.892 1026.98 336.246 769.7 483.688 697.601 525.148 634.374 580.402 583.625 646.294 576.264 655.943 578.121 669.732 587.769 677.093 597.35 684.399 611.026 682.63 618.432 673.125 665.682 611.8 724.55 560.383 791.673 521.813 1033.84 383.076 1339.87 431.195 1527.78 637.549Z" fill="#FD7E14" fill-rule="nonzero" fill-opacity="1" transform="matrix(0.998456 0.0559631 0.0559618 -0.998433 1060.76 2184.51)"/></g></g></g><path d="M2599 908.5C2599 824.276 2667.28 756 2751.5 756 2835.72 756 2904 824.276 2904 908.5 2904 992.724 2835.72 1061 2751.5 1061 2667.28 1061 2599 992.724 2599 908.5Z" fill="#7C7C7C" fill-rule="evenodd" fill-opacity="1"/><text fill="#7C7C7C" fill-opacity="1" font-family="Poppins,Poppins_MSFontService,sans-serif" font-style="normal" font-variant="normal" font-weight="700" font-stretch="normal" font-size="64" text-anchor="start" direction="ltr" writing-mode="lr-tb" unicode-bidi="normal" text-decoration="none" transform="matrix(1 0 0 1 2950.45 922)">PRICE</text><path d="M1499 908.5C1499 824.276 1567.5 756 1652 756 1736.5 756 1805 824.276 1805 908.5 1805 992.724 1736.5 1061 1652 1061 1567.5 1061 1499 992.724 1499 908.5Z" fill="#FD7E14" fill-rule="evenodd" fill-opacity="1"/><g clip-path="url(#clip13)"><g clip-path="url(#clip14)"><g clip-path="url(#clip15)"><path d="M111.177 147.247 77.2932 147.247C74.1595 147.247 71.6192 149.787 71.6192 152.921 71.6192 156.054 74.1595 158.595 77.2932 158.595L111.177 158.595C114.311 158.595 116.851 156.054 116.851 152.921 116.851 149.787 114.311 147.247 111.177 147.247Z" fill="#FFFFFF" fill-rule="nonzero" fill-opacity="1" transform="matrix(1 0 0 1.00529 2658 815)"/><path d="M94.2362 177.833C100.671 177.833 106.023 172.884 106.527 166.47L81.9433 166.47C82.4479 172.885 87.8012 177.834 94.2362 177.833Z" fill="#FFFFFF" fill-rule="nonzero" fill-opacity="1" transform="matrix(1 0 0 1.00529 2658 815)"/><path d="M143.402 87.5582 143.402 85.8572C142.911 59.0019 121.095 37.437 94.2362 37.2566 67.3752 37.4348 45.5565 59.0001 45.0647 85.8572L45.0647 87.5582C45.2482 93.3828 46.4054 99.1357 48.4884 104.578 50.4815 109.714 53.3758 114.453 57.0347 118.572 61.5353 123.494 66.4709 133.038 68.5519 137.275 69.1898 138.561 70.501 139.374 71.9362 139.374L116.53 139.374C117.966 139.373 119.277 138.56 119.917 137.275 121.996 133.04 126.931 123.494 131.432 118.572 135.091 114.453 137.985 109.714 139.978 104.578 142.06 99.1353 143.217 93.3828 143.402 87.5582ZM132.056 87.3613C131.885 91.894 130.97 96.3676 129.347 100.603 127.847 104.42 125.682 107.942 122.954 111.004 118.62 116.229 114.908 121.94 111.892 128.022L76.5686 128.022C73.5537 121.939 69.8412 116.229 65.5062 111.004 62.7779 107.942 60.6143 104.421 59.1157 100.603 57.4938 96.3688 56.5799 91.8964 56.4106 87.3653L56.4106 85.9478C56.7927 65.2976 73.5789 48.723 94.2323 48.6026 114.887 48.722 131.674 65.2999 132.052 85.9517Z" fill="#FFFFFF" fill-rule="nonzero" fill-opacity="1" transform="matrix(1 0 0 1.00529 2658 815)"/><path d="M94.6221 29.5313C96.7968 29.5313 98.5596 27.7684 98.5596 25.5938L98.5596 11.8125C98.5596 9.63788 96.7968 7.875 94.6221 7.875 92.4474 7.875 90.6846 9.63788 90.6846 11.8125L90.6846 25.5938C90.6846 27.7684 92.4474 29.5313 94.6221 29.5313Z" fill="#FFFFFF" fill-rule="nonzero" fill-opacity="1" transform="matrix(1 0 0 1.00529 2658 815)"/><path d="M47.8918 46.8563C49.4026 48.4204 51.8953 48.4638 53.4595 46.9531 55.0236 45.4423 55.0669 42.9497 53.5563 41.3855 53.5246 41.3526 53.4923 41.3203 53.4595 41.2886L43.7063 31.5354C42.1421 30.0246 39.6495 30.0679 38.1386 31.6323 36.6648 33.1581 36.6648 35.5773 38.1386 37.1031Z" fill="#FFFFFF" fill-rule="nonzero" fill-opacity="1" transform="matrix(1 0 0 1.00529 2658 815)"/><path d="M138.622 48.7482C139.666 48.748 140.667 48.333 141.406 47.5945L151.149 37.8492C152.628 36.2551 152.535 33.7637 150.94 32.2848 149.429 30.8822 147.091 30.8834 145.581 32.2875L135.844 42.0269C134.306 43.5649 134.307 46.0579 135.845 47.5953 136.583 48.3334 137.584 48.748 138.628 48.7482Z" fill="#FFFFFF" fill-rule="nonzero" fill-opacity="1" transform="matrix(1 0 0 1.00529 2658 815)"/><path d="M33.4688 81.7032 19.6875 81.7032C17.5129 81.7032 15.75 83.466 15.75 85.6407 15.75 87.8153 17.5129 89.5782 19.6875 89.5782L33.4688 89.5782C35.6434 89.5782 37.4063 87.8153 37.4063 85.6407 37.4063 83.466 35.6434 81.7032 33.4688 81.7032Z" fill="#FFFFFF" fill-rule="nonzero" fill-opacity="1" transform="matrix(1 0 0 1.00529 2658 815)"/><path d="M47.8918 124.299 38.1465 134.044C36.5453 135.516 36.4404 138.007 37.912 139.608 39.3835 141.209 41.8743 141.314 43.4755 139.843 43.5557 139.769 43.6326 139.692 43.7063 139.612L53.4516 129.867C55.0158 128.356 55.0591 125.863 53.5484 124.299 52.0376 122.735 49.545 122.692 47.9808 124.202 47.9479 124.234 47.9157 124.266 47.884 124.299Z" fill="#FFFFFF" fill-rule="nonzero" fill-opacity="1" transform="matrix(1 0 0 1.00529 2658 815)"/><path d="M141.406 123.553C139.925 121.96 137.433 121.87 135.841 123.35 134.248 124.831 134.157 127.322 135.638 128.915 135.704 128.986 135.773 129.055 135.844 129.121L145.587 138.864C147.151 140.375 149.644 140.331 151.155 138.767 152.629 137.241 152.629 134.822 151.155 133.296Z" fill="#FFFFFF" fill-rule="nonzero" fill-opacity="1" transform="matrix(1 0 0 1.00529 2658 815)"/><path d="M168.82 81.5693 155.039 81.5693C152.864 81.5693 151.102 83.3321 151.102 85.5068 151.102 87.6815 152.864 89.4443 155.039 89.4443L168.82 89.4443C170.995 89.4443 172.758 87.6815 172.758 85.5068 172.758 83.3321 170.995 81.5693 168.82 81.5693Z" fill="#FFFFFF" fill-rule="nonzero" fill-opacity="1" transform="matrix(1 0 0 1.00529 2658 815)"/></g></g></g><g clip-path="url(#clip16)"><g clip-path="url(#clip17)"><g clip-path="url(#clip18)"><path d="M2760.12 904.521C2758.4 903.051 2756.15 902.362 2754.03 901.698L2754.03 889.356C2756.09 889.552 2758.02 890.469 2759.47 891.944L2761.92 889.596C2759.83 887.463 2757.02 886.178 2754.03 885.988L2754.03 881.552 2750.97 881.552 2750.97 886.182C2749.92 886.386 2748.91 886.747 2747.97 887.253 2744.1 889.361 2742.12 894.312 2743.71 898.483 2744.94 901.698 2747.91 903.133 2750.97 904.209L2750.97 917.572C2748.6 917.281 2746.63 915.919 2744.99 914.219L2742.54 916.562C2743.71 917.885 2745.1 918.993 2746.65 919.833 2748.01 920.478 2749.47 920.864 2750.97 920.972L2750.97 925.448 2754.03 925.448 2754.03 920.854C2757.54 920.267 2760.77 918.108 2762.16 914.729 2763.55 911.35 2763.04 907.017 2760.12 904.521ZM2748.42 899.279C2745.61 896.911 2746.29 892.327 2749.27 890.428 2749.8 890.09 2750.37 889.827 2750.97 889.647L2750.97 900.718C2750.04 900.382 2749.18 899.896 2748.42 899.279ZM2757.65 915.52C2756.65 916.494 2755.4 917.159 2754.03 917.434L2754.03 905.241C2756.07 905.94 2758.42 906.828 2759.25 909.002 2760.08 911.177 2759.24 913.897 2757.65 915.52Z" fill="#FFFFFF" fill-rule="nonzero" fill-opacity="1"/></g></g></g><text fill="#000000" fill-opacity="1" font-family="Poppins,Poppins_MSFontService,sans-serif" font-style="normal" font-variant="normal" font-weight="700" font-stretch="normal" font-size="64" text-anchor="start" direction="ltr" writing-mode="lr-tb" unicode-bidi="normal" text-decoration="none" transform="matrix(1 0 0 1 2045.71 2080)">MONITOR</text><text fill="#FD7E14" fill-opacity="1" font-family="Poppins,Poppins_MSFontService,sans-serif" font-style="normal" font-variant="normal" font-weight="700" font-stretch="normal" font-size="64" text-anchor="start" direction="ltr" writing-mode="lr-tb" unicode-bidi="normal" text-decoration="none" transform="matrix(1 0 0 1 1210.98 922)">ADJUST</text><g clip-path="url(#clip19)"><g clip-path="url(#clip20)"><g clip-path="url(#clip21)"><path d="M144.245 125.543C141.061 122.359 136.286 120.768 131.909 121.762L122.956 113.008C130.914 102.662 135.292 89.9291 135.292 76.7978 135.49 43.5718 108.631 16.7125 75.6041 16.5135 42.577 16.3146 15.7177 43.1739 15.5187 76.201 15.3198 109.228 42.1791 136.087 75.2062 136.286 88.3374 136.286 101.27 131.909 111.814 123.951L120.569 132.705C119.773 137.281 121.165 141.857 124.349 145.239L149.219 170.109C154.59 175.481 163.544 175.481 168.915 170.109 174.287 164.737 174.287 155.784 168.915 150.412L144.245 125.543ZM75.6041 124.349C49.1427 124.349 27.8541 103.06 27.8541 76.5989 27.8541 50.1374 49.1427 28.8489 75.6041 28.8489 102.066 28.8489 123.354 50.1374 123.354 76.5989 123.354 102.861 101.867 124.349 75.6041 124.349Z" fill="#FFFFFF" fill-rule="nonzero" fill-opacity="1" transform="matrix(1.00524 0 0 1 2103 1729)"/><path d="M118.38 73.6145 107.039 73.6145C106.045 73.8135 105.05 74.4103 104.453 75.2062L96.8926 83.3634 90.5259 61.2791C89.9291 59.4885 87.9395 58.2947 86.1489 58.8916 85.1541 59.2895 84.1593 59.8864 83.7614 61.0801L71.8239 92.7145 63.6666 48.9437C63.2687 46.9541 61.4781 45.7604 59.6874 46.1583 58.4937 46.3572 57.4989 47.352 56.902 48.5458L48.3468 73.6145 32.8281 73.6145 32.8281 81.5728 50.9333 81.5728C52.5249 81.3739 53.9176 80.1801 54.3156 78.5884L59.2895 63.4676 67.2478 106.244C67.4468 107.835 68.8395 109.029 70.4312 109.029L70.8291 109.029C72.2218 109.029 73.6145 108.233 74.2114 106.84L86.9447 73.4155 92.1176 91.3218C92.7145 93.1124 94.5051 94.3061 96.4947 93.7093 97.0916 93.5103 97.6884 93.1124 98.0863 92.7145L108.83 81.5728 118.579 81.5728 118.579 73.6145Z" fill="#FFFFFF" fill-rule="nonzero" fill-opacity="1" transform="matrix(1.00524 0 0 1 2103 1729)"/></g></g></g><g clip-path="url(#clip22)"><g clip-path="url(#clip23)"><g clip-path="url(#clip24)"><path d="M145.078 42C141.763 31.4636 130.534 25.6094 119.997 28.9244 113.765 30.8854 108.883 35.7674 106.922 42L28 42 28 53.9999 106.922 53.9999C110.237 64.5363 121.466 70.3905 132.002 67.0755 138.235 65.1145 143.117 60.2325 145.078 53.9999L164 53.9999 164 42ZM126 55.9999C121.582 55.9999 118 52.4181 118 48 118 43.5818 121.582 40 126 40 130.418 40 134 43.5818 134 48 134 52.4181 130.418 55.9999 126 55.9999Z" fill="#FFFFFF" fill-rule="nonzero" fill-opacity="1" transform="matrix(1 0 0 1 1553 813)"/><path d="M118 124C109.269 124.011 101.551 129.675 98.9219 138L28 138 28 150 98.9219 150C102.237 160.536 113.466 166.39 124.002 163.075 130.235 161.114 135.117 156.232 137.078 150L164 150 164 138 137.078 138C134.448 129.675 126.73 124.011 118 124ZM118 152C113.582 152 110 148.418 110 144 110 139.582 113.582 136 118 136 122.418 136 126 139.582 126 144 126 148.418 122.418 152 118 152Z" fill="#FFFFFF" fill-rule="nonzero" fill-opacity="1" transform="matrix(1 0 0 1 1553 813)"/><path d="M67.9999 75.9999C59.2695 76.0111 51.5515 81.6747 48.922 89.9999L28 89.9999 28 102 48.922 102C52.2369 112.536 63.4659 118.39 74.0023 115.075 80.2351 113.114 85.1169 108.232 87.0779 102L164 102 164 89.9999 87.0779 89.9999C84.4483 81.6747 76.7303 76.0111 67.9999 75.9999ZM67.9999 104C63.5817 104 59.9999 100.418 59.9999 95.9999 59.9999 91.5817 63.5817 87.9999 67.9999 87.9999 72.4181 87.9999 75.9999 91.5817 75.9999 95.9999 75.9999 100.418 72.4181 104 67.9999 104Z" fill="#FFFFFF" fill-rule="nonzero" fill-opacity="1" transform="matrix(1 0 0 1 1553 813)"/></g></g></g><text fill="#000000" fill-opacity="1" font-family="Poppins,Poppins_MSFontService,sans-serif" font-style="normal" font-variant="normal" font-weight="700" font-stretch="normal" font-size="83" text-anchor="start" direction="ltr" writing-mode="lr-tb" unicode-bidi="normal" text-decoration="none" transform="matrix(1 0 0 1 1970.08 1160)">STRATEGIC</text><text fill="#000000" fill-opacity="1" font-family="Poppins,Poppins_MSFontService,sans-serif" font-style="normal" font-variant="normal" font-weight="700" font-stretch="normal" font-size="83" text-anchor="start" direction="ltr" writing-mode="lr-tb" unicode-bidi="normal" text-decoration="none" transform="matrix(1 0 0 1 2028.22 1259)">PRICING</text><text fill="#000000" fill-opacity="1" font-family="Poppins,Poppins_MSFontService,sans-serif" font-style="normal" font-variant="normal" font-weight="700" font-stretch="normal" font-size="83" text-anchor="start" direction="ltr" writing-mode="lr-tb" unicode-bidi="normal" text-decoration="none" transform="matrix(1 0 0 1 2066.04 1358)">CYCLE</text></g></svg>